<svg xmlns="http://www.w3.org/2000/svg" version="1.1" xmlns:xlink="http://www.w3.org/1999/xlink" xmlns:svgjs="http://svgjs.dev/svgjs" viewBox="0 0 2400 800"><defs><linearGradient x1="50%" y1="0%" x2="50%" y2="100%" id="sssurf-grad"><stop stop-color="rgba(247, 130, 56, 1)" stop-opacity="1" offset="0%"></stop><stop stop-color="rgba(190, 29, 36, 1)" stop-opacity="1" offset="100%"></stop></linearGradient></defs><g fill="url(#sssurf-grad)" transform="matrix(1,0,0,1,10.8282470703125,221.02720260620117)"><path d="M-10,10C33.75,14.166666666666668,114.58333333333334,36.666666666666664,200,30C285.41666666666663,23.333333333333336,316.66666666666663,-23.875,400,-22C483.33333333333337,-20.125,516.6666666666666,38.791666666666664,600,39C683.3333333333334,39.208333333333336,716.6666666666666,-17.041666666666668,800,-21C883.3333333333334,-24.958333333333332,916.6666666666666,19.166666666666668,1000,20C1083.3333333333333,20.833333333333332,1116.6666666666667,-19.708333333333332,1200,-17C1283.3333333333333,-14.291666666666668,1316.6666666666667,30.5,1400,33C1483.3333333333333,35.5,1516.6666666666667,-7.916666666666667,1600,-5C1683.3333333333333,-2.083333333333333,1716.6666666666667,45.958333333333336,1800,47C1883.3333333333333,48.041666666666664,1916.6666666666667,1.0416666666666667,2000,0C2083.3333333333335,-1.0416666666666667,2118.75,39.916666666666664,2200,42C2281.25,44.083333333333336,2296.25,-64.58333333333333,2390,10C2483.75,84.58333333333333,3252.0833333333335,214.58333333333331,2650,400C2047.9166666666665,585.4166666666667,156.25,795.8333333333334,-500,900" transform="matrix(1,0,0,1,0,35)" opacity="0.05"></path><path d="M-10,10C33.75,14.166666666666668,114.58333333333334,36.666666666666664,200,30C285.41666666666663,23.333333333333336,316.66666666666663,-23.875,400,-22C483.33333333333337,-20.125,516.6666666666666,38.791666666666664,600,39C683.3333333333334,39.208333333333336,716.6666666666666,-17.041666666666668,800,-21C883.3333333333334,-24.958333333333332,916.6666666666666,19.166666666666668,1000,20C1083.3333333333333,20.833333333333332,1116.6666666666667,-19.708333333333332,1200,-17C1283.3333333333333,-14.291666666666668,1316.6666666666667,30.5,1400,33C1483.3333333333333,35.5,1516.6666666666667,-7.916666666666667,1600,-5C1683.3333333333333,-2.083333333333333,1716.6666666666667,45.958333333333336,1800,47C1883.3333333333333,48.041666666666664,1916.6666666666667,1.0416666666666667,2000,0C2083.3333333333335,-1.0416666666666667,2118.75,39.916666666666664,2200,42C2281.25,44.083333333333336,2296.25,-64.58333333333333,2390,10C2483.75,84.58333333333333,3252.0833333333335,214.58333333333331,2650,400C2047.9166666666665,585.4166666666667,156.25,795.8333333333334,-500,900" transform="matrix(1,0,0,1,0,70)" opacity="0.21"></path><path d="M-10,10C33.75,14.166666666666668,114.58333333333334,36.666666666666664,200,30C285.41666666666663,23.333333333333336,316.66666666666663,-23.875,400,-22C483.33333333333337,-20.125,516.6666666666666,38.791666666666664,600,39C683.3333333333334,39.208333333333336,716.6666666666666,-17.041666666666668,800,-21C883.3333333333334,-24.958333333333332,916.6666666666666,19.166666666666668,1000,20C1083.3333333333333,20.833333333333332,1116.6666666666667,-19.708333333333332,1200,-17C1283.3333333333333,-14.291666666666668,1316.6666666666667,30.5,1400,33C1483.3333333333333,35.5,1516.6666666666667,-7.916666666666667,1600,-5C1683.3333333333333,-2.083333333333333,1716.6666666666667,45.958333333333336,1800,47C1883.3333333333333,48.041666666666664,1916.6666666666667,1.0416666666666667,2000,0C2083.3333333333335,-1.0416666666666667,2118.75,39.916666666666664,2200,42C2281.25,44.083333333333336,2296.25,-64.58333333333333,2390,10C2483.75,84.58333333333333,3252.0833333333335,214.58333333333331,2650,400C2047.9166666666665,585.4166666666667,156.25,795.8333333333334,-500,900" transform="matrix(1,0,0,1,0,105)" opacity="0.37"></path><path d="M-10,10C33.75,14.166666666666668,114.58333333333334,36.666666666666664,200,30C285.41666666666663,23.333333333333336,316.66666666666663,-23.875,400,-22C483.33333333333337,-20.125,516.6666666666666,38.791666666666664,600,39C683.3333333333334,39.208333333333336,716.6666666666666,-17.041666666666668,800,-21C883.3333333333334,-24.958333333333332,916.6666666666666,19.166666666666668,1000,20C1083.3333333333333,20.833333333333332,1116.6666666666667,-19.708333333333332,1200,-17C1283.3333333333333,-14.291666666666668,1316.6666666666667,30.5,1400,33C1483.3333333333333,35.5,1516.6666666666667,-7.916666666666667,1600,-5C1683.3333333333333,-2.083333333333333,1716.6666666666667,45.958333333333336,1800,47C1883.3333333333333,48.041666666666664,1916.6666666666667,1.0416666666666667,2000,0C2083.3333333333335,-1.0416666666666667,2118.75,39.916666666666664,2200,42C2281.25,44.083333333333336,2296.25,-64.58333333333333,2390,10C2483.75,84.58333333333333,3252.0833333333335,214.58333333333331,2650,400C2047.9166666666665,585.4166666666667,156.25,795.8333333333334,-500,900" transform="matrix(1,0,0,1,0,140)" opacity="0.53"></path><path d="M-10,10C33.75,14.166666666666668,114.58333333333334,36.666666666666664,200,30C285.41666666666663,23.333333333333336,316.66666666666663,-23.875,400,-22C483.33333333333337,-20.125,516.6666666666666,38.791666666666664,600,39C683.3333333333334,39.208333333333336,716.6666666666666,-17.041666666666668,800,-21C883.3333333333334,-24.958333333333332,916.6666666666666,19.166666666666668,1000,20C1083.3333333333333,20.833333333333332,1116.6666666666667,-19.708333333333332,1200,-17C1283.3333333333333,-14.291666666666668,1316.6666666666667,30.5,1400,33C1483.3333333333333,35.5,1516.6666666666667,-7.916666666666667,1600,-5C1683.3333333333333,-2.083333333333333,1716.6666666666667,45.958333333333336,1800,47C1883.3333333333333,48.041666666666664,1916.6666666666667,1.0416666666666667,2000,0C2083.3333333333335,-1.0416666666666667,2118.75,39.916666666666664,2200,42C2281.25,44.083333333333336,2296.25,-64.58333333333333,2390,10C2483.75,84.58333333333333,3252.0833333333335,214.58333333333331,2650,400C2047.9166666666665,585.4166666666667,156.25,795.8333333333334,-500,900" transform="matrix(1,0,0,1,0,175)" opacity="0.68"></path><path d="M-10,10C33.75,14.166666666666668,114.58333333333334,36.666666666666664,200,30C285.41666666666663,23.333333333333336,316.66666666666663,-23.875,400,-22C483.33333333333337,-20.125,516.6666666666666,38.791666666666664,600,39C683.3333333333334,39.208333333333336,716.6666666666666,-17.041666666666668,800,-21C883.3333333333334,-24.958333333333332,916.6666666666666,19.166666666666668,1000,20C1083.3333333333333,20.833333333333332,1116.6666666666667,-19.708333333333332,1200,-17C1283.3333333333333,-14.291666666666668,1316.6666666666667,30.5,1400,33C1483.3333333333333,35.5,1516.6666666666667,-7.916666666666667,1600,-5C1683.3333333333333,-2.083333333333333,1716.6666666666667,45.958333333333336,1800,47C1883.3333333333333,48.041666666666664,1916.6666666666667,1.0416666666666667,2000,0C2083.3333333333335,-1.0416666666666667,2118.75,39.916666666666664,2200,42C2281.25,44.083333333333336,2296.25,-64.58333333333333,2390,10C2483.75,84.58333333333333,3252.0833333333335,214.58333333333331,2650,400C2047.9166666666665,585.4166666666667,156.25,795.8333333333334,-500,900" transform="matrix(1,0,0,1,0,210)" opacity="0.84"></path><path d="M-10,10C33.75,14.166666666666668,114.58333333333334,36.666666666666664,200,30C285.41666666666663,23.333333333333336,316.66666666666663,-23.875,400,-22C483.33333333333337,-20.125,516.6666666666666,38.791666666666664,600,39C683.3333333333334,39.208333333333336,716.6666666666666,-17.041666666666668,800,-21C883.3333333333334,-24.958333333333332,916.6666666666666,19.166666666666668,1000,20C1083.3333333333333,20.833333333333332,1116.6666666666667,-19.708333333333332,1200,-17C1283.3333333333333,-14.291666666666668,1316.6666666666667,30.5,1400,33C1483.3333333333333,35.5,1516.6666666666667,-7.916666666666667,1600,-5C1683.3333333333333,-2.083333333333333,1716.6666666666667,45.958333333333336,1800,47C1883.3333333333333,48.041666666666664,1916.6666666666667,1.0416666666666667,2000,0C2083.3333333333335,-1.0416666666666667,2118.75,39.916666666666664,2200,42C2281.25,44.083333333333336,2296.25,-64.58333333333333,2390,10C2483.75,84.58333333333333,3252.0833333333335,214.58333333333331,2650,400C2047.9166666666665,585.4166666666667,156.25,795.8333333333334,-500,900" transform="matrix(1,0,0,1,0,245)" opacity="1"></path></g></svg>