<?xml version="1.0" standalone="no"?><svg xmlns="http://www.w3.org/2000/svg" viewBox="0 0 1440 320"><path fill="#0099ff" fill-opacity="1" d="M0,192L26.7,170.7C53.3,149,107,107,160,112C213.3,117,267,171,320,181.3C373.3,192,427,160,480,128C533.3,96,587,64,640,85.3C693.3,107,747,181,800,192C853.3,203,907,149,960,149.3C1013.3,149,1067,203,1120,218.7C1173.3,235,1227,213,1280,202.7C1333.3,192,1387,192,1413,192L1440,192L1440,0L1413.3,0C1386.7,0,1333,0,1280,0C1226.7,0,1173,0,1120,0C1066.7,0,1013,0,960,0C906.7,0,853,0,800,0C746.7,0,693,0,640,0C586.7,0,533,0,480,0C426.7,0,373,0,320,0C266.7,0,213,0,160,0C106.7,0,53,0,27,0L0,0Z"></path></svg>